<svg xmlns="http://www.w3.org/2000/svg" width="980" height="520" viewBox="0 0 980 520"><rect x="0.00" y="0.00" width="980.00" height="520.00" fill="#ffffff" /><text x="490.00" y="35.00" font-size="20" text-anchor="middle" font-family="Helvetica,Arial,sans-serif">NLL Comparison (Lower Is Better)</text><line x1="90" y1="435" x2="940" y2="435" stroke="#333" /><line x1="90" y1="70" x2="90" y2="435" stroke="#333" /><line x1="90" y1="435.00" x2="940" y2="435.00" stroke="#eee" /><text x="80.00" y="439.00" font-size="11" text-anchor="end" font-family="Helvetica,Arial,sans-serif">0.600</text><line x1="90" y1="362.00" x2="940" y2="362.00" stroke="#eee" /><text x="80.00" y="366.00" font-size="11" text-anchor="end" font-family="Helvetica,Arial,sans-serif">0.840</text><line x1="90" y1="289.00" x2="940" y2="289.00" stroke="#eee" /><text x="80.00" y="293.00" font-size="11" text-anchor="end" font-family="Helvetica,Arial,sans-serif">1.080</text><line x1="90" y1="216.00" x2="940" y2="216.00" stroke="#eee" /><text x="80.00" y="220.00" font-size="11" text-anchor="end" font-family="Helvetica,Arial,sans-serif">1.320</text><line x1="90" y1="143.00" x2="940" y2="143.00" stroke="#eee" /><text x="80.00" y="147.00" font-size="11" text-anchor="end" font-family="Helvetica,Arial,sans-serif">1.560</text><line x1="90" y1="70.00" x2="940" y2="70.00" stroke="#eee" /><text x="80.00" y="74.00" font-size="11" text-anchor="end" font-family="Helvetica,Arial,sans-serif">1.800</text><text x="302.50" y="460.00" font-size="12" text-anchor="middle" font-family="Helvetica,Arial,sans-serif">baseline</text><rect x="143.12" y="196.15" width="79.69" height="238.85" fill="#5B8FF9" /><text x="182.97" y="190.15" font-size="10" text-anchor="middle" font-family="Helvetica,Arial,sans-serif">1.385</text><rect x="249.38" y="401.01" width="79.69" height="33.99" fill="#5AD8A6" /><text x="289.22" y="395.01" font-size="10" text-anchor="middle" font-family="Helvetica,Arial,sans-serif">0.712</text><rect x="355.62" y="234.49" width="79.69" height="200.51" fill="#F6BD16" /><text x="395.47" y="228.49" font-size="10" text-anchor="middle" font-family="Helvetica,Arial,sans-serif">1.259</text><text x="727.50" y="460.00" font-size="12" text-anchor="middle" font-family="Helvetica,Arial,sans-serif">weather_and_occlusion_shift</text><rect x="568.12" y="181.96" width="79.69" height="253.04" fill="#5B8FF9" /><text x="607.97" y="175.96" font-size="10" text-anchor="middle" font-family="Helvetica,Arial,sans-serif">1.432</text><rect x="674.38" y="378.70" width="79.69" height="56.30" fill="#5AD8A6" /><text x="714.22" y="372.70" font-size="10" text-anchor="middle" font-family="Helvetica,Arial,sans-serif">0.785</text><rect x="780.62" y="110.37" width="79.69" height="324.63" fill="#F6BD16" /><text x="820.47" y="104.37" font-size="10" text-anchor="middle" font-family="Helvetica,Arial,sans-serif">1.667</text><rect x="110.00" y="50.00" width="16.00" height="16.00" fill="#5B8FF9" /><text x="134.00" y="63.00" font-size="12" text-anchor="start" font-family="Helvetica,Arial,sans-serif">inverse_variance</text><rect x="350.00" y="50.00" width="16.00" height="16.00" fill="#5AD8A6" /><text x="374.00" y="63.00" font-size="12" text-anchor="start" font-family="Helvetica,Arial,sans-serif">adaptive_reliability</text><rect x="590.00" y="50.00" width="16.00" height="16.00" fill="#F6BD16" /><text x="614.00" y="63.00" font-size="12" text-anchor="start" font-family="Helvetica,Arial,sans-serif">counterfactual_consensus</text></svg>