<svg xmlns="http://www.w3.org/2000/svg" width="980" height="520" viewBox="0 0 980 520"><rect x="0.00" y="0.00" width="980.00" height="520.00" fill="#ffffff" /><text x="490.00" y="35.00" font-size="20" text-anchor="middle" font-family="Helvetica,Arial,sans-serif">Uncertainty-Risk Correlation (Higher Is Better)</text><line x1="90" y1="435" x2="940" y2="435" stroke="#333" /><line x1="90" y1="70" x2="90" y2="435" stroke="#333" /><line x1="90" y1="435.00" x2="940" y2="435.00" stroke="#eee" /><text x="80.00" y="439.00" font-size="11" text-anchor="end" font-family="Helvetica,Arial,sans-serif">-0.100</text><line x1="90" y1="362.00" x2="940" y2="362.00" stroke="#eee" /><text x="80.00" y="366.00" font-size="11" text-anchor="end" font-family="Helvetica,Arial,sans-serif">0.000</text><line x1="90" y1="289.00" x2="940" y2="289.00" stroke="#eee" /><text x="80.00" y="293.00" font-size="11" text-anchor="end" font-family="Helvetica,Arial,sans-serif">0.100</text><line x1="90" y1="216.00" x2="940" y2="216.00" stroke="#eee" /><text x="80.00" y="220.00" font-size="11" text-anchor="end" font-family="Helvetica,Arial,sans-serif">0.200</text><line x1="90" y1="143.00" x2="940" y2="143.00" stroke="#eee" /><text x="80.00" y="147.00" font-size="11" text-anchor="end" font-family="Helvetica,Arial,sans-serif">0.300</text><line x1="90" y1="70.00" x2="940" y2="70.00" stroke="#eee" /><text x="80.00" y="74.00" font-size="11" text-anchor="end" font-family="Helvetica,Arial,sans-serif">0.400</text><text x="302.50" y="460.00" font-size="12" text-anchor="middle" font-family="Helvetica,Arial,sans-serif">baseline</text><rect x="143.12" y="368.41" width="79.69" height="66.59" fill="#5B8FF9" /><text x="182.97" y="362.41" font-size="10" text-anchor="middle" font-family="Helvetica,Arial,sans-serif">-0.009</text><rect x="249.38" y="114.93" width="79.69" height="320.07" fill="#5AD8A6" /><text x="289.22" y="108.93" font-size="10" text-anchor="middle" font-family="Helvetica,Arial,sans-serif">0.338</text><rect x="355.62" y="172.60" width="79.69" height="262.40" fill="#F6BD16" /><text x="395.47" y="166.60" font-size="10" text-anchor="middle" font-family="Helvetica,Arial,sans-serif">0.259</text><text x="727.50" y="460.00" font-size="12" text-anchor="middle" font-family="Helvetica,Arial,sans-serif">weather_and_occlusion_shift</text><rect x="568.12" y="382.74" width="79.69" height="52.26" fill="#5B8FF9" /><text x="607.97" y="376.74" font-size="10" text-anchor="middle" font-family="Helvetica,Arial,sans-serif">-0.028</text><rect x="674.38" y="229.76" width="79.69" height="205.24" fill="#5AD8A6" /><text x="714.22" y="223.76" font-size="10" text-anchor="middle" font-family="Helvetica,Arial,sans-serif">0.181</text><rect x="780.62" y="234.32" width="79.69" height="200.68" fill="#F6BD16" /><text x="820.47" y="228.32" font-size="10" text-anchor="middle" font-family="Helvetica,Arial,sans-serif">0.175</text><rect x="110.00" y="50.00" width="16.00" height="16.00" fill="#5B8FF9" /><text x="134.00" y="63.00" font-size="12" text-anchor="start" font-family="Helvetica,Arial,sans-serif">inverse_variance</text><rect x="350.00" y="50.00" width="16.00" height="16.00" fill="#5AD8A6" /><text x="374.00" y="63.00" font-size="12" text-anchor="start" font-family="Helvetica,Arial,sans-serif">adaptive_reliability</text><rect x="590.00" y="50.00" width="16.00" height="16.00" fill="#F6BD16" /><text x="614.00" y="63.00" font-size="12" text-anchor="start" font-family="Helvetica,Arial,sans-serif">counterfactual_consensus</text></svg>